<svg xmlns="http://www.w3.org/2000/svg" viewBox="0 0 720 320" width="720" height="320" role="img" aria-label="Lien architecture overview">
  <title>Lien architecture overview</title>
  <rect width="720" height="320" fill="#3D2817"/>
  <g font-family="Space Mono, monospace" font-size="13" fill="#F0EAD6" letter-spacing="1.5">
    <rect x="32" y="40" width="180" height="60" fill="none" stroke="#D4AF37" stroke-width="2"/>
    <text x="122" y="68" text-anchor="middle">ADAPTERS · rim</text>
    <text x="122" y="86" text-anchor="middle" font-size="11" fill="#D4AF37">marginfi · kamino · solend</text>

    <rect x="270" y="40" width="180" height="60" fill="none" stroke="#5BC0EB" stroke-width="2"/>
    <text x="360" y="68" text-anchor="middle">RUNTIME · middle</text>
    <text x="360" y="86" text-anchor="middle" font-size="11" fill="#5BC0EB">composition · simulator</text>

    <rect x="508" y="40" width="180" height="60" fill="none" stroke="#E63946" stroke-width="2"/>
    <text x="598" y="68" text-anchor="middle">EXECUTOR · core</text>
    <text x="598" y="86" text-anchor="middle" font-size="11" fill="#E63946">anchor 0.31 program</text>

    <line x1="212" y1="70" x2="270" y2="70" stroke="#D4AF37" stroke-width="2"/>
    <polygon points="262,66 270,70 262,74" fill="#D4AF37"/>
    <line x1="450" y1="70" x2="508" y2="70" stroke="#D4AF37" stroke-width="2"/>
    <polygon points="500,66 508,70 500,74" fill="#D4AF37"/>

    <rect x="32" y="160" width="656" height="120" fill="none" stroke="#D4AF37" stroke-width="1" stroke-dasharray="6 6"/>
    <text x="56" y="186" font-size="11" letter-spacing="2" fill="#D4AF37">HOOK LIBRARY</text>
    <g font-size="11" fill="#F0EAD6">
      <text x="56"  y="218">DynamicLTV</text>
      <text x="56"  y="238" fill="#E63946">slip knot</text>
      <text x="180" y="218">TimeTriggerLiq</text>
      <text x="180" y="238" fill="#5BC0EB">timer hitch</text>
      <text x="320" y="218">WhitelistBorrow</text>
      <text x="320" y="238" fill="#9D6BFF">lock knot</text>
      <text x="464" y="218">AntiMEVLiq</text>
      <text x="464" y="238" fill="#7CB07A">double bowline</text>
      <text x="56"  y="262">AutoHedge</text>
      <text x="56"  y="278" fill="#FFD976">double helix</text>
      <text x="180" y="262">ReputationRate</text>
      <text x="180" y="278" fill="#F0EAD6">rolling hitch</text>
    </g>
  </g>
</svg>
